<svg width="28" height="28" viewBox="0 0 28 28" fill="none" xmlns="http://www.w3.org/2000/svg">
<path d="M23.1875 3.5H18.375V2.625C18.375 1.17759 17.1974 0 15.75 0H12.25C10.8026 0 9.625 1.17759 9.625 2.625V3.5H4.8125C3.60631 3.5 2.625 4.48131 2.625 5.6875V8.75C2.625 9.23322 3.01678 9.625 3.5 9.625H3.97819L4.73413 25.4999C4.80091 26.9018 5.95262 28 7.35612 28H20.6439C22.0474 28 23.1992 26.9018 23.2659 25.4999L24.0218 9.625H24.5C24.9832 9.625 25.375 9.23322 25.375 8.75V5.6875C25.375 4.48131 24.3937 3.5 23.1875 3.5ZM11.375 2.625C11.375 2.14255 11.7675 1.75 12.25 1.75H15.75C16.2325 1.75 16.625 2.14255 16.625 2.625V3.5H11.375V2.625ZM4.375 5.6875C4.375 5.44627 4.57127 5.25 4.8125 5.25H23.1875C23.4287 5.25 23.625 5.44627 23.625 5.6875V7.875C23.3553 7.875 5.49243 7.875 4.375 7.875V5.6875ZM21.5178 25.4166C21.4956 25.8839 21.1117 26.25 20.6439 26.25H7.35612C6.88827 26.25 6.50437 25.8839 6.48216 25.4166L5.73016 9.625H22.2698L21.5178 25.4166Z" fill="black"/>
<path d="M14 24.5C14.4832 24.5 14.875 24.1082 14.875 23.625V12.25C14.875 11.7668 14.4832 11.375 14 11.375C13.5168 11.375 13.125 11.7668 13.125 12.25V23.625C13.125 24.1082 13.5167 24.5 14 24.5Z" fill="black"/>
<path d="M18.375 24.5C18.8582 24.5 19.25 24.1082 19.25 23.625V12.25C19.25 11.7668 18.8582 11.375 18.375 11.375C17.8918 11.375 17.5 11.7668 17.5 12.25V23.625C17.5 24.1082 17.8917 24.5 18.375 24.5Z" fill="black"/>
<path d="M9.625 24.5C10.1082 24.5 10.5 24.1082 10.5 23.625V12.25C10.5 11.7668 10.1082 11.375 9.625 11.375C9.14178 11.375 8.75 11.7668 8.75 12.25V23.625C8.75 24.1082 9.14173 24.5 9.625 24.5Z" fill="black"/>
</svg>
