<svg width="28" height="28" viewBox="0 0 28 28" fill="none" xmlns="http://www.w3.org/2000/svg">
<g clip-path="url(#clip0)">
<path d="M22.1666 14.0538C21.5215 14.0538 21 14.5766 21 15.2204V24.5538C21 25.1966 20.4773 25.7204 19.8334 25.7204H3.5C2.85593 25.7204 2.3334 25.1966 2.3334 24.5538V8.22043C2.3334 7.57764 2.85593 7.05383 3.5 7.05383H12.8334C13.4785 7.05383 14 6.5311 14 5.88724C14 5.24316 13.4785 4.72043 12.8334 4.72043H3.5C1.57034 4.72043 0 6.29077 0 8.22043V24.5538C0 26.4835 1.57034 28.0538 3.5 28.0538H19.8334C21.7631 28.0538 23.3334 26.4835 23.3334 24.5538V15.2204C23.3334 14.5753 22.8117 14.0538 22.1666 14.0538Z" fill="black"/>
<path d="M10.9383 12.9911C10.8567 13.0727 10.8018 13.1765 10.7785 13.2884L9.95374 17.4139C9.91529 17.6051 9.97595 17.8023 10.1135 17.9411C10.2244 18.052 10.3737 18.1114 10.5267 18.1114C10.5638 18.1114 10.6025 18.108 10.641 18.0999L14.7652 17.2751C14.8795 17.2516 14.9833 17.1969 15.0638 17.1151L24.2945 7.8844L20.1703 3.76041L10.9383 12.9911Z" fill="black"/>
<path d="M27.146 0.907906C26.0087 -0.229637 24.1583 -0.229637 23.0218 0.907906L21.4072 2.52247L25.5314 6.64668L27.146 5.0319C27.6967 4.48246 28.0001 3.74973 28.0001 2.97044C28.0001 2.19114 27.6967 1.45841 27.146 0.907906Z" fill="black"/>
</g>
<defs>
<clipPath id="clip0">
<rect width="28" height="28" fill="white"/>
</clipPath>
</defs>
</svg>
