<?xml version="1.0" encoding="iso-8859-1"?>
<!-- Generator: Adobe Illustrator 19.0.0, SVG Export Plug-In . SVG Version: 6.00 Build 0)  -->
<svg version="1.1" id="Capa_1" xmlns="http://www.w3.org/2000/svg" xmlns:xlink="http://www.w3.org/1999/xlink" x="0px" y="0px"
	 viewBox="0 0 64 64" style="enable-background:new 0 0 64 64;" xml:space="preserve">
<path d="M62.597,28.949c-0.437-0.579-0.889-1.178-0.961-1.643c-0.078-0.495,0.172-1.222,0.414-1.924
	c0.352-1.018,0.749-2.172,0.392-3.272c-0.363-1.121-1.375-1.828-2.268-2.452c-0.6-0.419-1.219-0.852-1.438-1.28
	c-0.224-0.438-0.211-1.202-0.199-1.94c0.018-1.082,0.038-2.307-0.647-3.249c-0.688-0.946-1.864-1.305-2.901-1.621
	c-0.703-0.214-1.431-0.437-1.774-0.78c-0.344-0.344-0.566-1.072-0.78-1.775C52.119,7.976,51.76,6.8,50.813,6.112
	c-0.941-0.685-2.167-0.666-3.248-0.647c-0.738,0.014-1.503,0.025-1.94-0.199c-0.428-0.218-0.861-0.838-1.28-1.438
	c-0.623-0.893-1.33-1.904-2.451-2.268c-1.101-0.357-2.257,0.04-3.276,0.39c-0.702,0.242-1.431,0.491-1.924,0.415
	C36.229,2.292,35.63,1.84,35.05,1.404C34.178,0.746,33.188,0,32,0s-2.178,0.746-3.051,1.404c-0.579,0.437-1.178,0.888-1.643,0.961
	c-0.493,0.079-1.221-0.173-1.924-0.415c-1.019-0.351-2.173-0.748-3.272-0.392c-1.121,0.364-1.828,1.375-2.452,2.268
	c-0.419,0.599-0.852,1.219-1.28,1.437c-0.438,0.224-1.203,0.21-1.94,0.199c-1.082-0.021-2.307-0.039-3.249,0.647
	c-0.946,0.688-1.305,1.864-1.621,2.901c-0.214,0.704-0.437,1.431-0.78,1.775c-0.344,0.344-1.072,0.566-1.776,0.781
	c-1.037,0.316-2.212,0.675-2.901,1.621c-0.685,0.941-0.665,2.167-0.647,3.249c0.012,0.739,0.024,1.502-0.199,1.941
	c-0.218,0.427-0.838,0.86-1.437,1.279c-0.893,0.624-1.904,1.331-2.269,2.452c-0.357,1.101,0.041,2.255,0.392,3.274
	c0.242,0.703,0.493,1.429,0.415,1.924c-0.073,0.465-0.524,1.064-0.961,1.643C0.746,29.822,0,30.812,0,32s0.746,2.178,1.404,3.051
	c0.437,0.579,0.888,1.179,0.961,1.644l1.976-0.311c-0.15-0.959-0.755-1.761-1.34-2.537C2.509,33.194,2,32.519,2,32
	s0.509-1.194,1.001-1.847c0.585-0.776,1.189-1.578,1.34-2.537c0.155-0.986-0.178-1.952-0.5-2.886
	c-0.261-0.757-0.531-1.541-0.38-2.004c0.157-0.483,0.846-0.964,1.512-1.43c0.8-0.559,1.628-1.137,2.073-2.009
	c0.45-0.882,0.434-1.899,0.417-2.883c-0.013-0.806-0.026-1.638,0.265-2.039c0.295-0.405,1.094-0.649,1.868-0.885
	c0.938-0.287,1.909-0.583,2.606-1.28c0.697-0.697,0.993-1.667,1.279-2.605c0.236-0.773,0.479-1.573,0.885-1.868
	c0.401-0.292,1.234-0.279,2.039-0.265c0.984,0.016,2,0.033,2.883-0.417c0.872-0.445,1.45-1.272,2.01-2.073
	c0.465-0.666,0.947-1.354,1.43-1.511c0.462-0.152,1.246,0.12,2.003,0.38c0.935,0.322,1.9,0.654,2.886,0.5
	c0.958-0.15,1.761-0.755,2.537-1.34C30.806,2.509,31.481,2,32,2c0.519,0,1.194,0.509,1.847,1.001
	c0.776,0.585,1.578,1.189,2.537,1.34c0.984,0.152,1.952-0.178,2.886-0.5c0.758-0.261,1.54-0.532,2.005-0.38
	c0.482,0.157,0.964,0.845,1.43,1.511c0.559,0.8,1.138,1.628,2.009,2.073c0.882,0.45,1.903,0.436,2.883,0.417
	c0.806-0.012,1.639-0.027,2.04,0.265c0.405,0.295,0.648,1.094,0.885,1.868c0.286,0.938,0.582,1.909,1.279,2.606
	c0.696,0.697,1.667,0.993,2.605,1.279c0.772,0.236,1.572,0.48,1.867,0.885c0.292,0.401,0.278,1.233,0.265,2.039
	c-0.016,0.984-0.032,2.001,0.418,2.883c0.445,0.872,1.272,1.45,2.072,2.009c0.666,0.466,1.354,0.947,1.512,1.431
	c0.15,0.463-0.119,1.246-0.38,2.003c-0.322,0.934-0.654,1.9-0.5,2.886c0.151,0.958,0.756,1.761,1.34,2.536
	c0.491,0.654,1,1.329,1,1.848c0,0.519-0.509,1.194-1.001,1.848c-0.584,0.775-1.188,1.577-1.34,2.536l1.977,0.311
	c0.072-0.465,0.524-1.064,0.961-1.644C63.254,34.178,64,33.188,64,32S63.254,29.822,62.597,28.949z M54.404,50.521
	c-0.938,0.286-1.909,0.582-2.605,1.279c-0.697,0.696-0.993,1.667-1.28,2.605c-0.235,0.773-0.479,1.572-0.885,1.867
	c-0.4,0.291-1.238,0.277-2.038,0.265c-0.984-0.016-2-0.032-2.884,0.418c-0.871,0.445-1.449,1.272-2.008,2.072
	c-0.466,0.666-0.947,1.354-1.431,1.512c-0.464,0.152-1.246-0.118-2.004-0.38c-0.934-0.321-1.901-0.648-2.886-0.5
	c-0.959,0.151-1.761,0.756-2.536,1.34C33.194,61.491,32.519,62,32,62s-1.194-0.509-1.848-1.001c-0.775-0.584-1.578-1.188-2.536-1.34
	c-0.983-0.148-1.952,0.179-2.886,0.5c-0.757,0.261-1.539,0.532-2.004,0.38c-0.483-0.157-0.965-0.846-1.43-1.512
	c-0.56-0.801-1.138-1.628-2.009-2.073c-0.882-0.45-1.9-0.434-2.882-0.417c-0.806,0.01-1.639,0.027-2.04-0.266
	c-0.405-0.295-0.649-1.094-0.885-1.867c-0.287-0.938-0.583-1.909-1.28-2.605c-0.697-0.697-1.667-0.993-2.606-1.28
	c-0.773-0.235-1.573-0.479-1.867-0.885L6.11,50.812c0.688,0.945,1.864,1.304,2.9,1.62c0.704,0.215,1.432,0.437,1.776,0.781
	c0.344,0.344,0.566,1.071,0.781,1.775c0.316,1.037,0.675,2.212,1.621,2.9c0.941,0.687,2.167,0.664,3.25,0.647
	c0.737-0.008,1.502-0.024,1.94,0.199c0.427,0.218,0.86,0.838,1.279,1.438c0.624,0.893,1.331,1.904,2.452,2.269
	c1.099,0.354,2.254-0.04,3.273-0.392c0.703-0.241,1.431-0.499,1.924-0.414c0.465,0.072,1.064,0.524,1.643,0.961
	C29.822,63.254,30.812,64,32,64s2.178-0.746,3.051-1.403c0.579-0.437,1.179-0.889,1.644-0.961c0.488-0.086,1.221,0.172,1.924,0.414
	c1.02,0.352,2.175,0.75,3.272,0.392c1.121-0.363,1.828-1.376,2.452-2.269c0.419-0.599,0.853-1.219,1.279-1.437
	c0.438-0.225,1.2-0.213,1.94-0.199c1.075,0.017,2.306,0.038,3.249-0.647c0.945-0.688,1.304-1.863,1.62-2.9
	c0.215-0.703,0.437-1.432,0.781-1.775c0.344-0.344,1.071-0.566,1.774-0.78c1.037-0.316,2.213-0.676,2.901-1.622l-1.617-1.176
	C55.977,50.041,55.177,50.284,54.404,50.521z"/>
<path d="M8,46v-2c0-0.553-0.448-1-1-1H5v2h1v1c0,0.552-0.449,1-1,1s-1-0.448-1-1v-6c0-0.552,0.449-1,1-1s1,0.448,1,1v1h2v-1
	c0-1.654-1.346-3-3-3s-3,1.346-3,3v6c0,1.654,1.346,3,3,3S8,47.654,8,46z M9,37v9c0,1.654,1.346,3,3,3s3-1.346,3-3v-9h-2v9
	c0,0.552-0.449,1-1,1s-1-0.448-1-1v-9H9z M16,40v9h2v-2h2v2h2v-9c0-1.654-1.346-3-3-3S16,38.346,16,40z M20,40v5h-2v-5
	c0-0.552,0.449-1,1-1S20,39.448,20,40z M30,40v9h2v-2h2v2h2v-9c0-1.654-1.346-3-3-3S30,38.346,30,40z M33,39c0.552,0,1,0.448,1,1v5
	h-2v-5C32,39.448,32.449,39,33,39z M23,38v4.996c0,0.003,0,0.005,0,0.007V49h2v-3.149l2.219,2.774C27.409,48.862,27.696,49,28,49h1
	v-2h-0.52l-2.434-3.043C27.718,43.694,29,42.244,29,40.5c0-1.93-1.57-3.5-3.5-3.5H24C23.448,37,23,37.447,23,38z M25,39h0.5
	c0.827,0,1.5,0.673,1.5,1.5S26.327,42,25.5,42H25V39z M41,42.808l-2.071-5.179c-0.179-0.447-0.655-0.696-1.118-0.611
	C37.34,37.108,37,37.521,37,38v11h2v-5.808l2.071,5.179C41.226,48.757,41.598,49,41.999,49c0.063,0,0.127-0.006,0.19-0.018
	C42.66,48.892,43,48.479,43,48V37h-2V42.808z M48,39h2v-2h-6v2h2v10h2V39z M56,39v-2h-4c-0.553,0-1,0.447-1,1v10
	c0,0.553,0.447,1,1,1h4v-2h-3v-3h3v-2h-3v-3H56z M57,38v10c0,0.553,0.447,1,1,1h4v-2h-3v-3h3v-2h-3v-3h3v-2h-4
	C57.447,37,57,37.447,57,38z"/>
<path d="M57,32C57,18.215,45.785,7,32,7S7,18.215,7,32c0,1.007,0.068,2.058,0.201,3.124l1.984-0.248C9.062,33.892,9,32.924,9,32
	C9,19.318,19.318,9,32,9c12.683,0,23,10.318,23,23c0,0.924-0.062,1.892-0.186,2.876l1.984,0.248C56.933,34.058,57,33.007,57,32z
	 M47.267,51.791l-1.223-1.582C41.985,53.343,37.13,55,32,55c-5.129,0-9.985-1.657-14.043-4.791l-1.223,1.582
	C21.146,55.199,26.424,57,32,57S42.855,55.199,47.267,51.791z"/>
<path d="M22,21h-2v2h1v10h2V22C23,21.448,22.552,21,22,21z M27.5,21c-1.93,0-3.5,1.57-3.5,3.5v5c0,1.93,1.57,3.5,3.5,3.5
	s3.5-1.57,3.5-3.5v-5C31,22.57,29.43,21,27.5,21z M29,29.5c0,0.827-0.673,1.5-1.5,1.5S26,30.327,26,29.5v-5
	c0-0.827,0.673-1.5,1.5-1.5s1.5,0.673,1.5,1.5V29.5z M35.5,21c-1.93,0-3.5,1.57-3.5,3.5v5c0,1.93,1.57,3.5,3.5,3.5s3.5-1.57,3.5-3.5
	v-5C39,22.57,37.43,21,35.5,21z M37,29.5c0,0.827-0.673,1.5-1.5,1.5S34,30.327,34,29.5v-5c0-0.827,0.673-1.5,1.5-1.5
	s1.5,0.673,1.5,1.5V29.5z"/>
<path d="M42.104,31.553l4-8l1.789,0.894l-4,8L42.104,31.553z"/>
<rect x="41" y="25" width="2" height="2"/>
<rect x="47" y="29" width="2" height="2"/>
<g>
</g>
<g>
</g>
<g>
</g>
<g>
</g>
<g>
</g>
<g>
</g>
<g>
</g>
<g>
</g>
<g>
</g>
<g>
</g>
<g>
</g>
<g>
</g>
<g>
</g>
<g>
</g>
<g>
</g>
</svg>
